<?xml version="1.0" encoding="UTF-8"?>
<svg width="32px" height="32px" viewBox="0 0 32 32" version="1.1" xmlns="http://www.w3.org/2000/svg" xmlns:xlink="http://www.w3.org/1999/xlink">
    <title>diff-easy</title>
    <g id="diff-easy" stroke="none" stroke-width="1" fill="none" fill-rule="evenodd">
        <path d="M29.5023216,17.2118095 C29.0285644,24.1208683 23.2739305,29.5784884 16.244601,29.5784884 C9.27919934,29.5784884 3.56541328,24.2196848 3.0011134,17.3999482 C6.07220069,15.9306749 8.43845796,15.3418538 10.4211106,15.4267681 C11.9701794,15.4931125 13.0765929,15.8756865 15.0989124,16.8880637 L15.0989124,16.8880637 L15.599332,17.1388885 C17.9015692,18.2859159 19.2221123,18.7481936 21.1856946,18.88533 C23.4739987,19.0451451 26.084823,18.5606617 29.2727926,17.303521 Z M16.244601,3 C23.1736183,3 28.8640617,8.30296542 29.4788247,15.0717898 C26.107992,16.5154216 23.5011482,17.0577112 21.3239549,16.9056561 C19.6454429,16.7884289 18.515964,16.3824634 16.334472,15.2877172 L16.334472,15.2877172 L15.8384222,15.0393056 C13.674999,13.9654705 12.3607722,13.5235257 10.506026,13.4440895 C8.36890318,13.3525595 5.95086736,13.9000876 3,15.2143229 C3.54477588,8.37818015 9.26661782,3 16.244601,3 Z" id="Combined-Shape" fill="#FFFFFF"></path>
    </g>
</svg>