<?xml version="1.0" encoding="UTF-8"?>
<svg width="32px" height="32px" viewBox="0 0 32 32" version="1.1" xmlns="http://www.w3.org/2000/svg" xmlns:xlink="http://www.w3.org/1999/xlink">
    <title>diff-med</title>
    <g id="diff-med" stroke="none" stroke-width="1" fill="none" fill-rule="evenodd">
        <path d="M19.247093,12.7650194 C19.8092251,12.7650194 20.2876504,13.1483262 21.0521353,14.2215391 L21.0521353,14.2215391 L21.1633333,14.3795816 L21.8403207,15.367773 C22.7698828,16.6999601 23.4982451,17.4730274 24.5266618,18.0159716 C25.6194775,18.5929146 26.8666918,18.736886 28.3020523,18.415719 L28.3023256,28.8062016 L3,28.8062016 L3.00153172,17.2526183 C4.86276863,17.5152923 5.92285987,18.3145308 6.91113739,19.8167788 L6.91113739,19.8167788 L6.9275699,19.8419389 C7.09020156,20.0925061 7.50574051,20.7730961 7.63519939,20.9860305 L7.63519939,20.9860305 L7.78731766,21.2287986 C8.73093574,22.690155 9.60585996,23.3667636 11.0876938,23.3667636 C12.4704254,23.3667636 13.5653083,22.6111487 14.4640563,21.2705165 L14.4640563,21.2705165 L14.5068899,21.2060953 C15.0742435,20.3456904 15.4944558,19.4209064 16.1642054,17.6949882 L16.1642054,17.6949882 L16.5308987,16.7441704 C17.6782988,13.8006785 18.3747316,12.7650194 19.247093,12.7650194 Z M28.3023256,4 L28.301648,16.3666079 C27.1096621,16.7240581 26.2062491,16.6586155 25.4531676,16.2610323 C24.7976349,15.9149492 24.2613256,15.3561294 23.5365342,14.3300612 L23.5365342,14.3300612 L23.3889717,14.1185421 C23.3379957,14.0446182 23.1160811,13.7184219 22.9501966,13.4758884 L22.9501966,13.4758884 L22.7249366,13.1498854 C21.5801796,11.5246252 20.6735963,10.7805233 19.247093,10.7805233 C18.0076579,10.7805233 17.0336846,11.4837957 16.2274397,12.7225418 C15.7056335,13.5242652 15.3213443,14.3740752 14.6847058,16.015564 L14.6847058,16.015564 L14.2760008,17.0737366 C13.0307725,20.2464659 12.2290577,21.3822674 11.0876938,21.3822674 C10.4238199,21.3822674 10.0396784,21.0782271 9.4069686,20.0781738 L9.4069686,20.0781738 L9.34858607,19.9842788 C9.27171377,19.8570061 8.81102234,19.1012705 8.60546854,18.7821316 L8.60546854,18.7821316 L8.50260307,18.626171 C7.18521206,16.6656924 5.59744446,15.5497291 3.00067103,15.2521809 L3,4 L28.3023256,4 Z" id="Combined-Shape" fill="#FFFFFF"></path>
    </g>
</svg>