<svg viewBox="0 0 106 125" version="1.1" xmlns="http://www.w3.org/2000/svg" xmlns:xlink="http://www.w3.org/1999/xlink">
    <g id="diff-med" stroke="none" stroke-width="1" fill="none" fill-rule="evenodd">
        <path d="M67.4958146,47.8339844 C69.7619093,47.8339844 71.6905616,49.3791898 74.7723913,53.7055796 L74.7723913,53.7055796 L75.2206584,54.3426884 L77.9497637,58.3263351 C81.6970609,63.6967142 84.6332712,66.8131418 88.7790762,69.0018855 C93.1848074,71.327855 98.2130481,71.9081555 103.999872,70.6130867 L103.999721,112.5 L1.99972082,112.5 L2.00077486,65.9238954 C9.50706266,66.9820566 13.7815934,70.2040748 17.7664934,76.2613897 L17.7664934,76.2613897 L17.832737,76.3628164 C18.4883459,77.3729153 20.1634873,80.1165438 20.6853684,80.9749356 L20.6853684,80.9749356 L21.2985951,81.9535945 C25.1025555,87.8446875 28.6295938,90.5722656 34.6032364,90.5722656 C40.1773734,90.5722656 44.5911201,87.5261931 48.2141979,82.1217697 L48.2141979,82.1217697 L48.3868709,81.8620718 C50.6740151,78.3935646 52.3679958,74.6655288 55.0679238,67.7079214 L55.0679238,67.7079214 L56.5461561,63.8749369 C61.1716128,52.0089851 63.9791077,47.8339844 67.4958146,47.8339844 Z M103.999721,12.5 L104.000279,62.3519015 C99.1934584,63.7939794 95.5506054,63.5304095 92.5140526,61.9272865 C89.8714365,60.532139 87.7094398,58.2793968 84.7876245,54.1430591 L84.7876245,54.1430591 L84.192763,53.290373 C83.987266,52.9923671 83.0926728,51.6773881 82.4239509,50.6996751 L82.4239509,50.6996751 L81.5158713,49.3854756 C76.9010698,42.8336454 73.2464057,39.8339844 67.4958146,39.8339844 C62.4993417,39.8339844 58.5730119,42.6690516 55.3228371,47.6627468 C53.219306,50.8946939 51.6701401,54.3204907 49.103691,60.9377423 L49.103691,60.9377423 L47.4560991,65.2035008 C42.4362723,77.9935657 39.2043596,82.5722656 34.6032364,82.5722656 C31.9269949,82.5722656 30.3784244,81.3466031 27.827813,77.3151382 L27.827813,77.3151382 L27.5924584,76.9366241 C27.282567,76.4235557 25.4254046,73.3769968 24.5967659,72.090468 L24.5967659,72.090468 L24.1820894,71.4617518 C18.871066,63.5581394 12.4699676,59.0593525 2.00070556,57.860157 L1.99972082,12.5 L103.999721,12.5 Z" id="Combined-Shape" fill="#01467F"></path>
    </g>
</svg>
