<svg viewBox="0 0 111 125" version="1.1" xmlns="http://www.w3.org/2000/svg" xmlns:xlink="http://www.w3.org/1999/xlink">
    <g id="diff-easy" stroke="none" stroke-width="1" fill="none" fill-rule="evenodd">
        <path d="M2.28516585,66.8839149 C14.5679497,61.0304525 24.0506071,58.6825729 32.0025421,59.0231431 C38.2472254,59.2905941 42.7074549,60.8328456 50.8599303,64.9139913 L50.8599303,64.9139913 L52.877247,65.9251286 C62.1581406,70.5490827 67.4815802,72.4126398 75.3972711,72.9654711 C84.8420359,73.6250929 95.6497257,71.5620002 108.922017,66.2208273 C107.013011,94.0720214 83.8149655,116.072266 55.4784878,116.072266 C27.3990242,116.072266 4.36520376,94.4692995 2.09063256,66.9769734 Z M55.4784878,8.92773437 C83.4125751,8.92773437 106.35313,30.3075888 108.829347,57.5964929 C95.2399876,63.411839 84.7313205,65.5978739 75.9546329,64.9849105 C69.1881316,64.5123385 64.6349196,62.87579 55.8407799,58.4625942 L55.8407799,58.4625942 L53.8410794,57.4611851 C45.1197797,53.1322874 39.8218027,51.3506973 32.344857,51.0304702 C23.7278026,50.6614139 13.9778499,52.8696238 2.07882368,58.1700043 C4.28308272,30.6078039 27.3489595,8.92773437 55.4784878,8.92773437 Z" id="Combined-Shape" fill="#016A55"></path>
    </g>
</svg>
