<svg viewBox="0 0 32 32" version="1.1" xmlns="http://www.w3.org/2000/svg" xmlns:xlink="http://www.w3.org/1999/xlink">
    <g id="symbol-bike" stroke="none" stroke-width="1" fill="none" fill-rule="evenodd">
        <path d="M7.1,15.25 C10.8279221,15.25 13.85,18.2720779 13.85,22 C13.85,25.7279221 10.8279221,28.75 7.1,28.75 C3.37207794,28.75 0.35,25.7279221 0.35,22 C0.35,18.2720779 3.37207794,15.25 7.1,15.25 Z M25,15.25 C28.7279221,15.25 31.75,18.2720779 31.75,22 C31.75,25.7279221 28.7279221,28.75 25,28.75 C21.2720779,28.75 18.25,25.7279221 18.25,22 C18.25,18.2720779 21.2720779,15.25 25,15.25 Z M7.1,16.75 C4.20050506,16.75 1.85,19.1005051 1.85,22 C1.85,24.8994949 4.20050506,27.25 7.1,27.25 C9.99949494,27.25 12.35,24.8994949 12.35,22 C12.35,19.1005051 9.99949494,16.75 7.1,16.75 Z M25,16.75 C22.1005051,16.75 19.75,19.1005051 19.75,22 C19.75,24.8994949 22.1005051,27.25 25,27.25 C27.8994949,27.25 30.25,24.8994949 30.25,22 C30.25,19.1005051 27.8994949,16.75 25,16.75 Z M14.4468364,6.50711622 C15.3355096,5.94910508 16.4940742,6.17585638 17.1113141,7.00195415 L17.2041562,7.13734432 L19.6429737,11.0213383 L23.4910533,11.0782984 C23.9785642,11.0855147 24.3699853,11.4827726 24.3699853,11.9703369 C24.3699853,12.4184667 24.034649,12.7882745 23.6012204,12.8425164 L23.490957,12.8493652 L19.6829757,12.8493652 C19.037165,12.8493652 18.4346901,12.5378589 18.0607922,12.0192313 L17.972187,11.8853198 L16.6726563,9.73925781 L13.4261169,12.8493652 L16.5292447,14.9349371 C17.0359818,15.2755085 17.3568243,15.8268356 17.4067791,16.4293901 L17.413623,16.5948733 L17.413623,22.9498291 C17.413623,23.6674892 16.8318446,24.2492676 16.1141846,24.2492676 C15.4413783,24.2492676 14.8879992,23.7379389 14.8214549,23.0826891 L14.8147461,22.9498291 L14.8147461,17.5864733 L9.86151849,14.5728953 C9.7286713,14.4920702 9.60570365,14.3960274 9.49510749,14.2867133 C8.75086558,13.5510988 8.70506913,12.3758617 9.36252915,11.5862279 L9.47861828,11.4583342 L14.0879481,6.79494525 C14.1961079,6.68551695 14.3165338,6.58893514 14.4468364,6.50711622 Z M19.05,2.5 C20.2926407,2.5 21.3,3.50735931 21.3,4.75 C21.3,5.99264069 20.2926407,7 19.05,7 C17.8073593,7 16.8,5.99264069 16.8,4.75 C16.8,3.50735931 17.8073593,2.5 19.05,2.5 Z" id="Shape" fill="#FFFFFF" fill-rule="nonzero"></path>
    </g>
</svg>
