<?xml version="1.0" encoding="UTF-8"?>
<svg width="32px" height="32px" viewBox="0 0 32 32" version="1.1" xmlns="http://www.w3.org/2000/svg" xmlns:xlink="http://www.w3.org/1999/xlink">
    <title>symbol-distance</title>
    <g id="symbol-distance" stroke="none" stroke-width="1" fill="none" fill-rule="evenodd">
        <path d="M22.1290011,25.6166533 C22.452406,25.6324873 22.7781852,25.6427123 23.1057611,25.6472644 C23.4647115,25.6522526 23.7516546,25.9472831 23.7466664,26.3062336 C23.7416783,26.665184 23.4466477,26.9521271 23.0876973,26.9471389 C22.7449589,26.942376 22.4040078,26.9316749 22.0654288,26.915098 C21.7068732,26.897543 21.4304376,26.5926451 21.4479926,26.2340895 C21.4655476,25.8755339 21.7704455,25.5990983 22.1290011,25.6166533 Z M26,17.1470449 C27.9818158,17.1470449 29.588395,18.7536241 29.588395,20.7354399 C29.588395,21.9822965 28.5231048,23.9558853 26.3925244,26.6562062 C26.3682595,26.6869597 26.3404644,26.7147548 26.3097109,26.7390197 C26.1170247,26.8910512 25.847216,26.8786484 25.6695137,26.7217694 L25.6075233,26.6562064 L25.3751455,26.3591832 C23.3994518,23.8107012 22.411605,21.9361201 22.411605,20.7354399 C22.411605,18.7536241 24.0181842,17.1470449 26,17.1470449 Z M19.1249197,25.3030072 L19.2208409,25.3116576 C19.5369843,25.3637089 19.8585521,25.4099677 20.1847822,25.4502832 C20.5410571,25.4943116 20.7941829,25.8188215 20.7501544,26.1750964 C20.706126,26.5313713 20.3816161,26.7844971 20.0253412,26.7404687 C19.6818946,26.6980256 19.3430732,26.6492847 19.0096462,26.5943878 C18.6554301,26.536068 18.4155587,26.2016415 18.4738784,25.8474254 C18.5268964,25.5254107 18.8081018,25.2978958 19.1249197,25.3030072 L19.1249197,25.3030072 Z M15.617371,25.0798854 C15.7257477,24.7376504 16.0910406,24.5480708 16.4332756,24.6564475 C16.7323649,24.751161 17.0418729,24.8398434 17.3607721,24.9221627 C17.7083632,25.0118883 17.9174045,25.3664036 17.8276788,25.7139948 C17.7379532,26.0615859 17.3834379,26.2706272 17.0358467,26.1809015 C16.6945096,26.0927903 16.3624868,25.9976568 16.040809,25.89579 C15.698574,25.7874134 15.5089944,25.4221204 15.617371,25.0798854 Z M12.8744783,23.6976623 C13.062349,23.3917621 13.4626293,23.2960803 13.7685295,23.483951 C14.0218679,23.6395405 14.2963587,23.7892573 14.5905557,23.9322353 C14.9134303,24.0891503 15.047967,24.4780966 14.891052,24.8009711 C14.7341369,25.1238457 14.3451906,25.2583824 14.0223161,25.1014674 C13.6905994,24.9402551 13.3787284,24.7701498 13.0881896,24.5917134 C12.7822894,24.4038427 12.6866076,24.0035624 12.8744783,23.6976623 Z M11.0774977,21.2997851 C11.4060374,21.1551064 11.7896568,21.3041551 11.9343355,21.6326949 C12.0368657,21.8655226 12.1830101,22.09712 12.3726593,22.3256041 C12.6019375,22.6018319 12.5638773,23.0116255 12.2876494,23.2409037 C12.0114216,23.4701818 11.601628,23.4321216 11.3723498,23.1558937 C11.1080153,22.8374309 10.8974488,22.5037428 10.7445879,22.1566229 C10.5999091,21.8280832 10.7489579,21.4444638 11.0774977,21.2997851 Z M11.4661276,18.5901952 C11.7251841,18.3416796 12.1366526,18.3502247 12.3851682,18.6092812 C12.6336838,18.8683377 12.6251387,19.2798063 12.3660822,19.5283219 C12.1545006,19.7312943 12.0003404,19.9340333 11.8998731,20.1415626 C11.7434502,20.4646759 11.3547094,20.5998052 11.0315961,20.4433823 C10.7084828,20.2869595 10.5733535,19.8982187 10.7297764,19.5751054 C10.9020998,19.2191473 11.1490709,18.8943509 11.4661276,18.5901952 Z M14.1349494,16.899695 C14.453424,16.7340322 14.845895,16.8579106 15.0115579,17.1763852 C15.1606545,17.4630124 15.0752227,17.8095766 14.8244773,17.9967914 L14.7348678,18.0529938 L13.8624706,18.5133077 C13.5475157,18.6855682 13.1525495,18.5698916 12.980289,18.2549366 C12.8252545,17.9714772 12.9034492,17.6232087 13.1502406,17.4308116 L13.2386601,17.372755 L14.1349494,16.899695 Z M16.4514224,15.3644713 C16.6860273,15.0927531 17.0964834,15.0626669 17.3682016,15.2972719 C17.6399199,15.5318768 17.6700061,15.9423329 17.4354011,16.2140511 C17.2016676,16.4847601 16.9162853,16.7361882 16.5748303,16.9813892 C16.28324,17.1907821 15.8771129,17.124148 15.66772,16.8325577 C15.4583271,16.5409674 15.5249613,16.1348402 15.8165516,15.9254473 C16.0802473,15.7360857 16.2905085,15.5508409 16.4514224,15.3644713 Z M16.7775003,12.4356044 C17.0780955,12.2393576 17.4808655,12.3239486 17.6771124,12.6245438 C17.9080177,12.9782261 18.0560924,13.3797087 18.1202378,13.8265029 C18.1712535,14.1818445 17.9245486,14.5112623 17.569207,14.562278 C17.2138653,14.6132937 16.8844476,14.3665888 16.8334319,14.0112472 C16.7957941,13.7490874 16.7140332,13.5274049 16.5885609,13.3352165 C16.3923141,13.0346213 16.4769051,12.6318513 16.7775003,12.4356044 Z M14.5142389,10.9002521 L14.6096591,10.9133172 C14.9905301,10.9942251 15.3366941,11.0878708 15.652093,11.1969563 C15.9913592,11.3142967 16.1712656,11.6844495 16.0539252,12.0237156 C15.9365848,12.3629818 15.566432,12.5428882 15.2271659,12.4255478 C14.9655699,12.3350708 14.6705423,12.2552587 14.3395294,12.1849421 C13.9883798,12.1103478 13.7641875,11.7652143 13.8387818,11.4140648 C13.9065947,11.0948379 14.1979939,10.8805344 14.5142389,10.9002521 L14.5142389,10.9002521 Z M11.5416998,10.5322526 L11.8977173,10.5591961 L12.5538597,10.6165487 C12.9111818,10.651063 13.1728692,10.9687092 13.1383549,11.3260312 C13.1038406,11.6833533 12.7861944,11.9450407 12.4288724,11.9105264 L12.1200406,11.8821666 L11.4479007,11.8288642 C11.0898513,11.8029623 10.8205925,11.4917083 10.8464945,11.1336588 C10.8723964,10.7756094 11.1836504,10.5063507 11.5416998,10.5322526 Z M8.53887894,10.3511638 L9.53539306,10.4087127 C9.89380434,10.4290018 10.1679066,10.7359991 10.1476175,11.0944103 C10.1291729,11.4202388 9.87377936,11.6763903 9.55821691,11.705027 L9.46191988,11.7066348 L8.46112106,11.6488362 C8.10277871,11.627364 7.82969154,11.3194634 7.85116379,10.9611211 C7.87068402,10.6353553 8.12692186,10.3800483 8.44257714,10.3524536 L8.53887894,10.3511638 Z M5.72955498,4 C7.31500764,4 8.60027096,5.28526332 8.60027096,6.87071598 C8.60027096,7.8525465 7.77457913,9.39765716 6.12319546,11.506048 C6.09830021,11.5378328 6.06964727,11.5664857 6.03786242,11.5913809 C5.84459723,11.7427542 5.57478137,11.7293867 5.39760468,11.571844 L5.33583634,11.5060474 L4.92378734,10.968806 C3.54716734,9.13318494 2.858839,7.76716451 2.858839,6.87071598 C2.858839,5.28526332 4.14410232,4 5.72955498,4 Z" id="Shape" fill="#000000"></path>
    </g>
</svg>