<svg viewBox="0 0 115 115" version="1.1" xmlns="http://www.w3.org/2000/svg" xmlns:xlink="http://www.w3.org/1999/xlink">
    <g id="symbol-hike" stroke="none" stroke-width="1" fill="none" fill-rule="evenodd">
        <path d="M54.4139553,28.449323 L56.8046202,28.6340885 C59.2898132,28.8254482 61.3978769,30.5333703 62.1005971,32.9248107 L65.6456039,44.9891607 L75.6494513,48.0484462 C77.2339089,48.5328635 78.1256677,50.210018 77.6412504,51.7944756 C77.1568331,53.3789332 75.4796787,54.270692 73.8952211,53.7862747 L62.419564,50.2778143 C62.1165324,50.1851682 61.838838,50.0488948 61.5912621,49.8779862 C61.381929,49.7390775 61.1897723,49.5681721 61.0230391,49.3670239 C60.8879843,49.2094431 60.7702254,49.0396654 60.6708623,48.8597966 L58.3525342,45.2899667 L58.3720751,52.2343082 L69.7303557,95.7480157 C70.4392261,98.4154326 68.8563087,101.154818 66.1912983,101.872683 C63.5239678,102.587392 60.782283,101.004479 60.067574,98.3371489 L51.4234137,66.08 L43.4980727,97.8703694 C42.8300239,100.549767 40.1163823,102.180287 37.4369846,101.512239 C34.757587,100.84419 33.1270666,98.1305481 33.7951155,95.4511504 L45.124411,50.0118277 L48.8257932,32.3741022 C49.3696773,29.7824004 51.8296174,28.0841031 54.4139553,28.449323 Z M84.9641855,34.8185964 C86.055156,34.9913892 86.799486,36.0158716 86.6266933,37.106842 L76.6148875,100.318896 C76.4420948,101.409866 75.4176123,102.154196 74.3266419,101.981404 C73.2356715,101.808611 72.4913414,100.784128 72.6641342,99.693158 L82.6759399,36.4811042 C82.8487327,35.3901338 83.8732151,34.6458037 84.9641855,34.8185964 Z M39.8065976,22.7881446 L45.628372,24.239676 C46.7001311,24.5068955 47.3523392,25.5923521 47.0851197,26.6641112 L41.762838,48.0106172 C41.4956184,49.0823762 40.4101618,49.7345844 39.3384027,49.4673648 L33.5166284,48.0158335 C32.4448693,47.7486139 31.7926611,46.6631573 32.0598807,45.5913982 L37.3821624,24.2448922 C37.6493819,23.1731332 38.7348386,22.520925 39.8065976,22.7881446 Z M57.8454137,13 C61.4352646,13 64.3454137,15.9101491 64.3454137,19.5 C64.3454137,23.0898509 61.4352646,26 57.8454137,26 C54.2555629,26 51.3454137,23.0898509 51.3454137,19.5 C51.3454137,15.9101491 54.2555629,13 57.8454137,13 Z" id="Shape" fill="#FFFFFF"></path>
    </g>
</svg>
