<?xml version="1.0" encoding="UTF-8"?>
<svg width="32px" height="32px" viewBox="0 0 32 32" version="1.1" xmlns="http://www.w3.org/2000/svg" xmlns:xlink="http://www.w3.org/1999/xlink">
    <title>symbol-duration</title>
    <g id="symbol-duration" stroke="none" stroke-width="1" fill="none" fill-rule="evenodd">
        <path d="M16.0655897,3 C19.9460738,3 23.5447755,4.69588232 26.0009557,7.55677609 L26,6 C26,5.48716416 26.3860402,5.06449284 26.8833789,5.00672773 L27,5 C27.5128358,5 27.9355072,5.38604019 27.9932723,5.88337887 L28,6 L28,10 C28,10.5128358 27.6139598,10.9355072 27.1166211,10.9932723 L27,11 L23,11 C22.4477153,11 22,10.5522847 22,10 C22,9.48716416 22.3860402,9.06449284 22.8833789,9.00672773 L23,9 L24.6017244,8.99961576 C22.5189635,6.4912008 19.4182021,5 16.0655897,5 C9.95301673,5 5,9.92609165 5,16 C5,22.0739084 9.95301673,27 16.0655897,27 C21.5683614,27 26.2124649,22.9822004 27.0109385,17.6281669 C27.0924025,17.0819233 27.6012601,16.705145 28.1475036,16.786609 C28.6937472,16.868073 29.0705255,17.3769306 28.9890615,17.9231742 C28.0446963,24.2554602 22.5605666,29 16.0655897,29 C8.85088031,29 3,23.1809256 3,16 C3,8.81907436 8.85088031,3 16.0655897,3 Z M15.9999699,8 L16.116591,8.00672773 C16.5756729,8.06004937 16.9399205,8.42429701 16.9932421,8.88337887 L16.9999699,9 L16.9999699,15.071 L19.6332077,17.2260427 L19.7253574,17.3115049 C20.067903,17.6714982 20.0967526,18.2386733 19.7739272,18.6332378 C19.4511017,19.0278022 18.8894449,19.1118358 18.4687495,18.8473591 L18.3667321,18.7739573 L15.3667321,16.3194118 L15.2733236,16.2324768 C15.1279534,16.0787374 15.0350379,15.8826632 15.0081041,15.6727993 L14.9999699,15.5454545 L14.9999699,9 L15.0066976,8.88337887 C15.0600192,8.42429701 15.4242669,8.06004937 15.8833488,8.00672773 L15.9999699,8 Z" id="Shape" fill="#ffffff" fill-rule="nonzero"></path>
    </g>
</svg>
