<?xml version="1.0" encoding="UTF-8"?>
<svg width="32px" height="32px" viewBox="0 0 32 32" version="1.1" xmlns="http://www.w3.org/2000/svg" xmlns:xlink="http://www.w3.org/1999/xlink">
    <title>symbol-hike</title>
    <g id="symbol-hike" stroke="none" stroke-width="1" fill="none" fill-rule="evenodd">
        <path d="M15.3822382,7.0315449 L16.1696252,7.09171944 C16.9881459,7.15404158 17.6824557,7.71027869 17.9139029,8.48912445 L19.0814829,12.4182493 L22.3763402,13.4145993 C22.8981956,13.5723646 23.1919044,14.1185813 23.0323572,14.6346084 C22.87281,15.1506355 22.320424,15.4410641 21.7985686,15.2832987 L18.0189576,14.1406612 C17.9191514,14.1104882 17.8276902,14.0661066 17.7461489,14.010445 C17.6772031,13.9652051 17.6139146,13.9095445 17.5589995,13.8440344 C17.514518,13.7927135 17.475733,13.7374201 17.4430069,13.6788403 L16.6794447,12.516216 L16.6858806,14.7778533 L20.4268327,28.9494241 C20.6603055,29.81815 20.1389575,30.7103147 19.2612123,30.9441094 C18.3827029,31.1768762 17.4797043,30.6613523 17.2443084,29.7926545 L14.3972764,19.2871267 L11.7869939,29.6406335 C11.566966,30.5132613 10.6732037,31.0442902 9.79071989,30.8267196 C8.90823612,30.6091491 8.37120955,29.7253686 8.59123746,28.8527408 L12.3226431,14.0540346 L13.5417266,8.30976938 C13.7208598,7.46570238 14.5310632,6.91259987 15.3822382,7.0315449 Z M25.4442319,9.10589374 C25.8035528,9.16216899 26.0487046,9.49582306 25.9917938,9.85113097 L22.6943153,30.4380711 C22.6374045,30.793379 22.2999819,31.0357928 21.940661,30.9795176 C21.5813401,30.9232424 21.3361882,30.5895883 21.3930991,30.2342804 L24.6905775,9.64734028 C24.7474884,9.29203237 25.0849109,9.0496185 25.4442319,9.10589374 Z M10.5711733,5.18780888 L12.4886271,5.6605445 C12.8416207,5.74757272 13.0564313,6.1010849 12.9684201,6.45013604 L11.2154787,13.4022791 C11.1274675,13.7513302 10.7699626,13.9637418 10.4169691,13.8767135 L8.49951522,13.4039779 C8.14652171,13.3169497 7.93171108,12.9634375 8.01972225,12.6143864 L9.77266369,5.66224334 C9.86067486,5.3131922 10.2181798,5.10078065 10.5711733,5.18780888 Z M16.5124199,2 C17.6947697,2 18.6532535,2.94777914 18.6532535,4.11692395 C18.6532535,5.28606877 17.6947697,6.2338479 16.5124199,6.2338479 C15.3300702,6.2338479 14.3715864,5.28606877 14.3715864,4.11692395 C14.3715864,2.94777914 15.3300702,2 16.5124199,2 Z" id="Shape" fill="#FFFFFF"></path>
    </g>
</svg>