<?xml version="1.0" encoding="UTF-8"?>
<svg width="32px" height="32px" viewBox="0 0 32 32" version="1.1" xmlns="http://www.w3.org/2000/svg" xmlns:xlink="http://www.w3.org/1999/xlink">
    <title>symbol-watercraft</title>
    <g id="symbol-watercraft" stroke="none" stroke-width="1" fill="none" fill-rule="evenodd">
        <path d="M26.1371951,22.832 C26.9606569,22.832 27.4575228,22.9412603 28.1457114,23.2124187 L28.3041023,23.2761923 C28.7735887,23.4678988 29.0015694,23.5280745 29.4790506,23.5352459 L29.5853659,23.536 L29.5853659,26 C28.7220514,26 28.2048531,25.8876057 27.4991315,25.6098397 L27.3374819,25.5447865 C26.8521144,25.3465952 26.6444614,25.296 26.1371951,25.296 C25.6521845,25.296 25.4235985,25.3429261 24.9695677,25.5177801 L24.8483229,25.5652976 C24.0610243,25.8776324 23.5572358,26 22.6890244,26 C21.8719445,26 21.3661371,25.8913558 20.6413785,25.6206421 L20.4640149,25.5529739 C19.9392912,25.3500166 19.714739,25.296 19.2408537,25.296 C18.8213422,25.296 18.6108874,25.3387708 18.2170191,25.4905982 L18.0429009,25.5594699 C17.2621512,25.8711189 16.7124084,26 15.7926829,26 C14.9440601,26 14.4429342,25.8874966 13.8090681,25.6145322 L13.6394209,25.5394207 C13.2418898,25.361308 13.0165367,25.302841 12.454053,25.2965788 L12.3445122,25.296 C11.7298167,25.296 11.4610721,25.3494411 11.0642722,25.5141831 L10.8879827,25.5897932 C10.2195151,25.878617 9.72217673,26 8.89634146,26 C8.10314052,26 7.61108482,25.8927978 6.94800459,25.6324905 L6.75773756,25.5558077 C6.26158838,25.3532139 6.02007219,25.296 5.44817073,25.296 C4.96609929,25.296 4.75559328,25.3321444 4.40731864,25.4712037 L4.22630115,25.5468102 C3.51134829,25.8545112 3.00500725,25.9859408 2.14645025,25.9989231 L2,26 L2,23.536 C2.53842408,23.536 2.74973809,23.4923209 3.15908651,23.3211489 L3.25274508,23.2813193 C4.00160289,22.9590226 4.51549968,22.832 5.44817073,22.832 C6.32574533,22.832 6.86043049,22.9464351 7.56345613,23.2225204 L7.75260174,23.2987585 C8.21272437,23.4866415 8.41645313,23.536 8.89634146,23.536 C9.31373913,23.536 9.49447554,23.4997248 9.81808862,23.3652678 L10.0037592,23.2856094 C10.7398651,22.9680587 11.332019,22.832 12.3445122,22.832 C13.309735,22.832 13.8712653,22.9539577 14.5477729,23.2451828 L14.7127004,23.3181887 C15.1029464,23.493196 15.2756714,23.536 15.7926829,23.536 C16.3190243,23.536 16.5752023,23.4841683 17.0224722,23.3114228 L17.1932224,23.2438413 C17.9242699,22.9521093 18.4246491,22.832 19.2408537,22.832 C20.0223376,22.832 20.5112846,22.9378682 21.2166291,23.201462 L21.3901456,23.2676773 C21.9358823,23.4787829 22.1753697,23.536 22.6890244,23.536 C23.1569129,23.536 23.3781889,23.4903709 23.8245027,23.3183857 L23.9439471,23.2715612 C24.7398235,22.9558203 25.251565,22.832 26.1371951,22.832 Z M16.3904954,10.0046068 L16.4355596,10.0764804 L20.417122,16.672 L31,16.672 L27.992309,22.2735322 C27.3803316,22.0453262 26.8982466,21.952 26.1371951,21.952 C25.3036609,21.952 24.8013221,22.0616817 24.0815803,22.3378206 L23.8245027,22.4383857 C23.3781889,22.6103709 23.1569129,22.656 22.6890244,22.656 C22.2120594,22.656 21.9714936,22.6066648 21.5026132,22.430594 L21.2166291,22.321462 C20.5112846,22.0578682 20.0223376,21.952 19.2408537,21.952 C18.4756619,21.952 17.988051,22.0575648 17.3277241,22.3111402 L17.0224722,22.4314228 C16.5752023,22.6041683 16.3190243,22.656 15.7926829,22.656 C15.3423084,22.656 15.1531904,22.6235189 14.8539578,22.499461 L14.7127004,22.4381887 L14.5477729,22.3651828 C14.1979386,22.2145851 13.8788505,22.1092513 13.5187854,22.0426393 L8.65939024,16.6719738 L12.9902927,16.671648 L10.978958,13.3397617 L6.58336232,15.968516 C5.99738496,16.3189556 5.23693053,16.1302421 4.88483981,15.5470128 C4.53274909,14.9637835 4.72235167,14.2068953 5.30832903,13.8564558 L13.0385146,9.23347403 C14.1860536,8.54719661 15.6681585,8.89476369 16.3904954,10.0046068 Z M7.07429268,16.6719738 L11.861512,21.9640356 C11.1730091,22.0010372 10.6804522,22.1249046 10.1188724,22.3569714 L9.81808862,22.4852678 C9.49447554,22.6197248 9.31373913,22.656 8.89634146,22.656 C8.45336762,22.656 8.24570133,22.6139431 7.85447491,22.4596977 L7.56345613,22.3425204 C6.86043049,22.0664351 6.32574533,21.952 5.44817073,21.952 C4.56731474,21.952 4.05999505,22.065301 3.37549124,22.3493996 L3.15908651,22.4411489 C2.77702799,22.6009095 2.56747943,22.6496095 2.10347895,22.6553928 L2,22.656 L2,16.6719738 L7.07429268,16.6719738 Z M11.7256098,4 C12.9951912,4 14.0243902,5.02437249 14.0243902,6.288 C14.0243902,7.55162751 12.9951912,8.576 11.7256098,8.576 C10.4560283,8.576 9.42682927,7.55162751 9.42682927,6.288 C9.42682927,5.02437249 10.4560283,4 11.7256098,4 Z" id="Shape" fill="#FFFFFF"></path>
    </g>
</svg>