<svg viewBox="0 0 115 115" version="1.1" xmlns="http://www.w3.org/2000/svg" xmlns:xlink="http://www.w3.org/1999/xlink">
    <g id="symbol-watercraft" stroke="none" stroke-width="1" fill="none" fill-rule="evenodd">
        <path d="M85.25,75.5 C87.5784092,75.5 88.9833404,75.8103986 90.929253,76.5807349 L91.3771169,76.7619098 C92.7046301,77.3065306 93.3492652,77.4774845 94.6993845,77.4978578 L95,77.5 L95,84.5 C92.5589041,84.5 91.0964813,84.180698 89.1009925,83.3915902 L88.6439143,83.2067797 C87.2714959,82.6437363 86.684339,82.5 85.25,82.5 C83.8785907,82.5 83.2322439,82.6333127 81.9484327,83.130057 L81.6056028,83.2650499 C79.3794481,84.1523649 77.9549427,84.5 75.5,84.5 C73.1896363,84.5 71.759422,84.1913517 69.7101047,83.4222788 L69.2085938,83.2300395 C67.7248922,82.6534562 67.0899518,82.5 65.75,82.5 C64.5637953,82.5 63.9687162,82.6215081 62.8550194,83.0528357 L62.3626852,83.2484942 C60.1550483,84.1338605 58.6006029,84.5 56,84.5 C53.6004457,84.5 52.183469,84.180388 50.3911582,83.404921 L49.9114659,83.1915361 C48.7874126,82.685534 48.1502073,82.5194347 46.559736,82.5016444 L46.25,82.5 C44.5118956,82.5 43.7519969,82.6518213 42.6300111,83.1198382 L42.1315372,83.3346398 C40.2413874,84.1551619 38.8351204,84.5 36.5,84.5 C34.257156,84.5 32.865826,84.1954484 30.9909095,83.4559389 L30.4529131,83.2380902 C29.0500085,82.6625396 28.3671007,82.5 26.75,82.5 C25.3869014,82.5 24.7916775,82.602683 23.806901,82.9977379 L23.2950584,83.2125291 C21.2734676,84.0866796 19.8417446,84.460059 17.4141007,84.4969406 L17,84.5 L17,77.5 C18.5224405,77.5 19.1199491,77.3759118 20.277417,76.8896276 L20.5422447,76.7764754 C22.6597047,75.8608597 24.1127922,75.5 26.75,75.5 C29.2314178,75.5 30.7432862,75.8250998 32.7311518,76.609433 L33.2659773,76.8260186 C34.5670137,77.3597771 35.1430744,77.5 36.5,77.5 C37.6802279,77.5 38.1912757,77.3969456 39.1063195,77.0149655 L39.6313191,76.7886631 C41.7127219,75.8865304 43.3870883,75.5 46.25,75.5 C48.9792507,75.5 50.5670259,75.8464707 52.4799096,76.6738149 L52.9462563,76.881218 C54.0497104,77.3783978 54.5381053,77.5 56,77.5 C57.4882756,77.5 58.2126409,77.3527507 59.4773353,76.8619967 L59.9601462,76.6700038 C62.0272459,75.8412196 63.4421113,75.5 65.75,75.5 C67.9597131,75.5 69.3422529,75.800762 71.3366754,76.549608 L71.8273083,76.7377197 C73.3704259,77.3374513 74.0475972,77.5 75.5,77.5 C76.822995,77.5 77.4486721,77.3703719 78.7106627,76.8817774 L79.0484021,76.7487535 C81.2988113,75.8517623 82.7458046,75.5 85.25,75.5 Z M57.6903663,39.058542 L57.8177893,39.2627285 L69.076,58 L99,58 L90.4954944,73.9134438 C88.7650756,73.2651312 87.4019386,73 85.25,73 C82.8931102,73 81.4727039,73.3115957 79.4375719,74.0960814 L78.7106627,74.3817774 C77.4486721,74.8703719 76.822995,75 75.5,75 C74.1513403,75 73.4711199,74.8598432 72.1453202,74.3596421 L71.3366754,74.049608 C69.3422529,73.300762 67.9597131,73 65.75,73 C63.5863544,73 62.2075925,73.2999 60.3404613,74.0202847 L59.4773353,74.3619967 C58.2126409,74.8527507 57.4882756,75 56,75 C54.7265273,75 54.1917799,74.9077241 53.3456738,74.555287 L52.9462563,74.381218 L52.4799096,74.1738149 C51.4907229,73.7459803 50.5884739,73.4467366 49.5703587,73.2574981 L35.83,57.9999255 L48.076,57.999 L42.3887779,48.5334139 L29.9598521,56.001466 C28.3029506,56.9970328 26.1527001,56.4609152 25.1571333,54.8040137 C24.1615664,53.1471122 24.697684,50.9968617 26.3545855,50.0012949 L48.2123517,36.867824 C51.4571171,34.9181722 55.6478963,35.9055787 57.6903663,39.058542 Z M31.348,57.9999255 L44.8842753,73.0341921 C42.937474,73.1393102 41.5447269,73.4912062 39.9568117,74.150487 L39.1063195,74.5149655 C38.1912757,74.8969456 37.6802279,75 36.5,75 C35.2474533,75 34.6602589,74.8805201 33.5540325,74.4423231 L32.7311518,74.109433 C30.7432862,73.3250998 29.2314178,73 26.75,73 C24.2593038,73 22.8248136,73.3218779 20.8893201,74.1289761 L20.277417,74.3896276 C19.1971136,74.8434928 18.604597,74.9818451 17.2925956,74.9982749 L17,75 L17,57.9999255 L31.348,57.9999255 Z M44.5,22 C48.0898509,22 51,24.9101491 51,28.5 C51,32.0898509 48.0898509,35 44.5,35 C40.9101491,35 38,32.0898509 38,28.5 C38,24.9101491 40.9101491,22 44.5,22 Z" id="Shape" fill="#FFFFFF"></path>
    </g>
</svg>
