<svg viewBox="0 0 32 32" version="1.1" xmlns="http://www.w3.org/2000/svg" xmlns:xlink="http://www.w3.org/1999/xlink">
    <g id="symbol-distance" stroke="none" stroke-width="1" fill="none" fill-rule="evenodd">
        <path d="M23.0697878,27.4344566 C23.4569607,27.4530871 23.846976,27.465118 24.2391421,27.4704741 C24.6688692,27.4763433 25.0123908,27.8234803 25.006419,28.2458264 C25.0004473,28.6681725 24.6472437,29.0057938 24.2175166,28.9999246 C23.8071982,28.9943206 23.3990195,28.9817294 22.9936806,28.9622248 C22.5644262,28.9415693 22.233484,28.5828222 22.2545004,28.1609407 C22.2755168,27.7390591 22.6405335,27.4138012 23.0697878,27.4344566 Z M27.7040574,17.4689969 C30.076641,17.4689969 32,19.3593204 32,21.6911527 C32,23.1582216 30.7246594,25.4803737 28.1739783,28.6576091 C28.1449291,28.6937941 28.1116534,28.7264983 28.074836,28.7550486 C27.8441566,28.9339311 27.5211479,28.9193378 27.3084068,28.7347517 L27.2341934,28.6576094 L26.9559961,28.3081277 C24.5907418,25.3095481 23.4081147,23.1038898 23.4081147,21.6911527 C23.4081147,19.3593204 25.3314738,17.4689969 27.7040574,17.4689969 Z M19.4733718,27.0654162 L19.5882064,27.0755944 C19.9666859,27.1368387 20.3516595,27.1912675 20.7422144,27.2387032 C21.1687384,27.2905077 21.4717747,27.6723306 21.4190649,28.0915286 C21.3663551,28.5107266 20.9778594,28.8085579 20.5513354,28.7567535 C20.1401692,28.7068144 19.7345401,28.6494652 19.3353691,28.5848727 C18.9113098,28.5162528 18.6241414,28.122762 18.6939605,27.7059863 C18.7574323,27.3270993 19.0940848,27.059402 19.4733718,27.0654162 L19.4733718,27.0654162 Z M15.2742165,26.8028881 C15.4039625,26.4002096 15.8412826,26.1771475 16.2509984,26.304665 C16.6090611,26.4161063 16.9795969,26.5204513 17.3613755,26.6173092 C17.7775035,26.7228817 18.0277628,27.1400094 17.9203454,27.54899 C17.8129279,27.9579706 17.3885105,28.2039314 16.9723825,28.098359 C16.5637416,27.994686 16.1662517,27.8827506 15.7811466,27.7628928 C15.3714308,27.6353753 15.1444705,27.2055665 15.2742165,26.8028881 Z M11.9904894,25.1765449 C12.2154038,24.8166185 12.69461,24.704038 13.0608266,24.9250892 C13.3641174,25.108158 13.6927314,25.2843169 14.0449372,25.4525468 C14.431475,25.6371752 14.5925393,26.0948149 14.4046843,26.4747136 C14.2168292,26.8546123 13.7511918,27.0129101 13.364654,26.8282817 C12.9675305,26.638597 12.5941658,26.4384488 12.2463395,26.228498 C11.880123,26.0074468 11.765575,25.5364713 11.9904894,25.1765449 Z M9.83918615,22.3551691 C10.2325062,22.1849381 10.6917664,22.360311 10.8649724,22.7468754 C10.9877191,23.0208238 11.1626798,23.2933245 11.3897235,23.5621621 C11.6642099,23.8871756 11.6186451,24.3693445 11.2879516,24.6391164 C10.957258,24.9088883 10.4666627,24.864106 10.1921763,24.5390925 C9.87572114,24.1643847 9.62363583,23.7717626 9.44063436,23.3633365 C9.26742835,22.9767721 9.44586606,22.5254002 9.83918615,22.3551691 Z M10.3044448,19.1670277 C10.6145813,18.8746208 11.1071818,18.8846751 11.4046988,19.1894846 C11.7022159,19.4942942 11.6919859,19.9784338 11.3818495,20.2708407 C11.1285489,20.5096609 10.9439919,20.7482064 10.8237148,20.9923883 C10.636449,21.3725679 10.1710576,21.5315629 9.7842339,21.3475136 C9.39741024,21.1634643 9.23563659,20.7060665 9.42290236,20.3258869 C9.62920389,19.9070616 9.92487195,19.5249016 10.3044448,19.1670277 Z M13.4994959,17.1779616 C13.8807663,16.9830403 14.3506235,17.1287974 14.5489512,17.5035191 C14.7274462,17.8407687 14.6251692,18.248541 14.3249827,18.4688206 L14.2177042,18.534949 L13.1732907,19.0765608 C12.796234,19.279245 12.3233898,19.1431382 12.1171635,18.7725578 C11.9315598,18.4390355 12.0251727,18.0292579 12.3206256,17.8028808 L12.4264793,17.7345706 L13.4994959,17.1779616 Z M16.2727233,15.3715959 C16.5535869,15.0518885 17.0449753,15.0164886 17.37027,15.2925281 C17.6955647,15.5685676 17.7315832,16.0515159 17.4507197,16.3712234 C17.1708993,16.6897433 16.8292463,16.9855772 16.4204644,17.2740841 C16.0713793,17.5204588 15.5851734,17.4420561 15.3344931,17.0989668 C15.0838128,16.7558776 15.1635857,16.2780227 15.5126708,16.0316481 C15.8283612,15.8088426 16.080081,15.590881 16.2727233,15.3715959 Z M16.6630962,11.9254501 C17.0229617,11.6945434 17.5051486,11.7940744 17.7400907,12.1477589 C18.0165252,12.5639064 18.1937968,13.0362965 18.2705901,13.5620007 C18.331665,13.9801007 18.0363156,14.3676982 17.6109089,14.427724 C17.1855022,14.4877499 16.7911309,14.1974734 16.7300561,13.7793735 C16.684997,13.4709127 16.5871148,13.2100779 16.4369023,12.9839463 C16.2019602,12.6302618 16.3032306,12.1563569 16.6630962,11.9254501 Z M13.9535725,10.1189331 L14.0678073,10.1343057 C14.5237772,10.2295031 14.9381966,10.3396879 15.3157849,10.4680395 C15.7219464,10.6061038 15.9373261,11.0416307 15.7968489,11.440816 C15.6563718,11.8400013 15.2132335,12.0516817 14.807072,11.9136174 C14.4938954,11.8071609 14.1406952,11.7132529 13.7444143,11.6305173 C13.3240263,11.5427487 13.0556285,11.1366597 13.144931,10.7234923 C13.2261151,10.3478855 13.5749713,10.095733 13.9535725,10.1189331 L13.9535725,10.1189331 Z M10.3949182,9.68593978 L10.8211339,9.71764189 L11.6066524,9.7851238 C12.03443,9.82573381 12.347716,10.1994807 12.3063963,10.6199108 C12.2650766,11.040341 11.884798,11.348246 11.4570204,11.307636 L11.0872942,11.2742675 L10.282624,11.2115512 C9.85397563,11.1810746 9.53162535,10.8148487 9.56263451,10.3935628 C9.59364368,9.97227683 9.96626976,9.65546322 10.3949182,9.68593978 Z M6.80001113,9.47286815 L7.99301455,9.54058102 C8.42209616,9.56445341 8.75024494,9.92567071 8.72595535,10.3473824 C8.70387391,10.7307567 8.39812273,11.0321482 8.02033873,11.0658426 L7.90505418,11.0677343 L6.7069212,10.9997277 C6.27792212,10.9744631 5.95098854,10.612183 5.97669461,10.1905524 C6.00006377,9.80725184 6.30682573,9.50685412 6.68472086,9.47438575 L6.80001113,9.47286815 Z M3.43675411,2 C5.334821,2 6.87350823,3.5122588 6.87350823,5.37772458 C6.87350823,6.5329601 5.88500925,8.35095892 3.9080113,10.831721 C3.87820728,10.8691195 3.84390465,10.9028329 3.80585257,10.9321249 C3.57448,11.1102329 3.25146276,11.0945045 3.03935097,10.9091375 L2.96540335,10.8317204 L2.47210792,10.1995946 C0.824050608,8.0397772 0,6.43249845 0,5.37772458 C0,3.5122588 1.53868723,2 3.43675411,2 Z" id="Shape" fill="#ffffff"></path>
    </g>
</svg>
