<svg viewBox="0 0 32 32" version="1.1" xmlns="http://www.w3.org/2000/svg" xmlns:xlink="http://www.w3.org/1999/xlink">
    <g id="symbol-thumbs-up" stroke="none" stroke-width="1" fill="none" fill-rule="evenodd">
        <path d="M22.8013338,6.28096343 C22.8013338,8.4812611 22.5038823,9.98852899 21.54723,11.6709495 L26.625,11.6715789 C28.1183489,11.6715789 29.3289474,12.8821774 29.3289474,14.3755263 C29.3289474,14.8730338 29.1945853,15.3391593 28.9601688,15.7395952 C30.0035907,16.112555 30.75,17.1108214 30.75,18.2834211 C30.75,19.2846342 30.2058349,20.1587508 29.3971277,20.626148 C29.7123615,21.0669502 29.8973684,21.6075277 29.8973684,22.1913158 C29.8973684,23.5433361 28.9050662,24.6635918 27.609023,24.8635215 C27.7999474,25.2325618 27.9078947,25.65328 27.9078947,26.0992105 C27.9078947,27.4776864 26.8763789,28.6152389 25.5431248,28.7820903 L25.2846027,28.8033186 L25.2846027,28.8033186 C21.3225141,29.2804791 17.5837144,29.5192249 14.0679739,29.5192249 C12.1170327,29.5192249 10.2425586,28.710509 8.46239,27.1261458 C7.9522473,26.6721248 7.32215231,26.3777344 6.65006737,26.2764971 L6.42459081,26.2499511 L2.9364115,25.9531383 C2.58353774,25.9231119 2.3049704,25.6520296 2.25723811,25.310305 L2.25,25.2058388 L2.25,14.6158773 C2.25,14.2361815 2.53215388,13.9223863 2.89822944,13.8727239 L3,13.8658773 L7.809,13.865 L8.08671183,13.7045043 C10.2846677,12.3988478 11.9909089,10.9137236 13.2117709,9.25161839 L13.4494735,8.91683835 C13.4977633,8.84643221 13.5577198,8.78478798 13.6267587,8.73456285 L14.4823382,8.10381599 C14.8026576,7.86176221 15.0412133,7.67023112 15.3188297,7.43392485 C16.9015086,6.0867532 17.9002018,4.67330473 18.2968333,2.90217702 C18.3630207,2.60662242 18.6004802,2.37988522 18.8987756,2.32741503 C21.4192152,1.88406953 22.8013338,3.35410078 22.8013338,6.28096343 Z M19.733951,3.74962613 L19.625,3.751 L19.5753956,3.9242442 C19.0477087,5.61965428 18.036548,7.0214259 16.586866,8.31815719 L16.2910959,8.5761588 L15.9201659,8.88458672 L15.61916,9.1228981 C15.461979,9.24471687 15.2909601,9.37355467 15.0889104,9.5230214 L14.609,9.874 L14.439103,10.1144863 C13.08733,11.9632978 11.2163426,13.5929857 8.83261796,15.0060925 L8.37966254,15.2685126 C8.29513053,15.3163782 8.20238199,15.347213 8.10664799,15.3596388 L8.01011256,15.3658773 L3.75,15.365 L3.75,24.516 L6.55176782,24.7553522 C7.54073116,24.8395041 8.4803568,25.2150937 9.25310575,25.8315814 L9.45962971,26.0056491 C10.9802968,27.359054 12.5104673,28.0192249 14.0679739,28.0192249 C15.7388615,28.0192249 17.4625076,27.9642373 19.2388862,27.8542246 C18.835517,27.3816097 18.5921053,26.768836 18.5921053,26.0992105 C18.5921053,25.488499 18.7945702,24.9250758 19.1360398,24.4724009 C18.3820049,23.9947 17.8815789,23.1514483 17.8815789,22.1913158 C17.8815789,21.4228551 18.2021475,20.7292672 18.7168522,20.2369843 C18.2021475,19.7454697 17.8815789,19.0518818 17.8815789,18.2834211 C17.8815789,17.3232886 18.3820049,16.4800369 19.1362607,16.0002622 C18.9908774,15.8097835 18.8711691,15.5979636 18.7812757,15.3710832 L18.2035184,16.034559 C18.1029261,16.1487635 18.0001993,16.2648232 17.8953609,16.3828018 C16.8956447,17.5078201 16.3845963,18.5704343 16.329847,19.5721176 C16.3072409,19.9857139 15.9536291,20.302674 15.5400329,20.280068 C15.1264366,20.2574619 14.8094765,19.9038501 14.8320825,19.4902539 C14.9072457,18.1150809 15.5653739,16.7466463 16.7740984,15.3864231 L17.3123986,14.7762691 L17.8487724,14.1565758 C20.6648435,10.8625837 21.3013338,9.38531803 21.3013338,6.28096343 C21.3013338,4.49771954 20.8309364,3.75143687 19.733951,3.74962613 Z M25.2039474,24.8952632 L21.2960526,24.8952632 C20.6311309,24.8952632 20.0921053,25.4342888 20.0921053,26.0992105 C20.0921053,26.7225747 20.5658582,27.2352879 21.172956,27.2969421 L21.2960526,27.3031579 L25.2039474,27.3031579 C25.8688691,27.3031579 26.4078947,26.7641323 26.4078947,26.0992105 C26.4078947,25.4758464 25.9341418,24.9631331 25.327044,24.901479 L25.2039474,24.8952632 Z M27.1934211,20.9873684 L20.5855263,20.9873684 C19.9206045,20.9873684 19.3815789,21.526394 19.3815789,22.1913158 C19.3815789,22.8146799 19.8553319,23.3273932 20.4624297,23.3890473 L20.5855263,23.3952632 L27.1934211,23.3952632 C27.8583428,23.3952632 28.3973684,22.8562376 28.3973684,22.1913158 C28.3973684,21.5679516 27.9236155,21.0552384 27.3165177,20.9935843 L27.1934211,20.9873684 Z M28.0460526,17.0794737 L20.5855263,17.0794737 C19.9206045,17.0794737 19.3815789,17.6184993 19.3815789,18.2834211 C19.3815789,18.9067852 19.8553319,19.4194984 20.4624297,19.4811526 L20.5855263,19.4873684 L28.0460526,19.4873684 C28.7109744,19.4873684 29.25,18.9483428 29.25,18.2834211 C29.25,17.6600569 28.776247,17.1473437 28.1691493,17.0856895 L28.0460526,17.0794737 Z M26.625,13.1715789 L21.2960526,13.1715789 C20.6311309,13.1715789 20.0921053,13.7106045 20.0921053,14.3755263 C20.0921053,14.9988905 20.5658582,15.5116037 21.172956,15.5732578 L21.2960526,15.5794737 L26.625,15.5794737 C27.2899218,15.5794737 27.8289474,15.0404481 27.8289474,14.3755263 C27.8289474,13.7521622 27.3551944,13.2394489 26.7480966,13.1777948 L26.625,13.1715789 Z" id="Shape" fill="#FFFFFF" fill-rule="nonzero"></path>
    </g>
</svg>
