<svg viewBox="0 0 32 32" version="1.1" xmlns="http://www.w3.org/2000/svg" xmlns:xlink="http://www.w3.org/1999/xlink">
    <g id="symbol-fish" stroke="none" stroke-width="1" fill="none" fill-rule="evenodd">
        <path d="M18.6535469,2.75500811 C23.7086891,1.03143283 28.283479,4.02195251 29.0654459,8.6421454 C29.7318238,12.579389 29.3455965,14.5754395 27.3054608,17.4230502 C24.7457133,20.9959324 19.4675935,23.7773526 12.9096568,24.1068152 L12.4705807,24.1251286 L12.366,24.127 L12.3670231,24.3525586 C12.3625618,27.0679193 11.8858938,28.6322636 10.6670581,29.6521843 L10.5172181,29.7720003 L10.3660971,29.8826565 C8.42462273,31.2449298 6.4490431,29.6356049 6.4490431,27.0146617 L6.45392214,26.4767087 L6.48311543,25.2556801 C6.49675468,24.3166844 6.44731769,24.1140385 6.30991937,24.030616 L5.29055954,23.6157433 C4.99842988,23.4936004 4.68771268,23.3597125 4.42331,23.2365532 L4.29526868,23.1759716 L4.0577717,23.0564122 C2.30462671,22.1219048 1.25,20.8281431 1.25,18.9818588 C1.25,17.7154549 1.93449926,16.9829329 2.98235332,16.7771249 C3.23502767,16.7274974 3.44837348,16.7118832 3.74197679,16.7118002 L4.36551901,16.7155677 C5.10445552,16.7186075 5.84196536,16.7343177 6.56346411,16.7678571 L7.27908568,16.8075307 L7.949,16.858 L8.0279198,16.4247091 C9.23129333,10.1593502 13.1643488,4.93713897 18.0557748,2.97662633 L18.3564322,2.86068922 L18.6535469,2.75500811 Z M27.5466437,8.67837476 C26.8128503,5.06480745 23.2087355,2.78668561 19.137616,4.17475355 C14.2385773,5.84510458 10.2079077,11.2828351 9.32638548,17.7735438 C9.27163453,18.1766788 8.90546264,18.4626534 8.50107363,18.4180997 C7.39898743,18.296677 6.19342495,18.2389191 4.97248809,18.2211953 L4.36114634,18.2155602 L4.05580083,18.215035 L3.74089389,18.2119128 C3.54111552,18.2123264 3.40775547,18.2222307 3.27144354,18.2490036 C2.89158529,18.3236112 2.75,18.4751297 2.75,18.9818588 C2.75,20.1744477 3.44923995,21.0322392 4.7633582,21.7327251 C5.30859259,22.0233602 6.92819626,22.6511738 7.08840118,22.7484436 C7.82132268,23.193443 7.9883351,23.6135085 7.98544711,25.0085246 L7.98034091,25.4344936 L7.95374859,26.5002954 L7.9490431,27.0146617 C7.9490431,28.5692415 8.72526431,29.2015582 9.50452831,28.6547725 C10.5730785,27.9050034 10.9561234,26.5265335 10.8509265,23.4148708 C10.8365955,22.9909662 11.1763516,22.6395298 11.6004983,22.6395298 C18.2842938,22.6395298 23.6433898,19.9589825 26.0861029,16.5494563 C27.5286909,14.5358994 28.0108013,13.112876 27.8317632,10.7838047 C25.0513402,13.3813163 22.2300709,14.5932605 19.3775541,14.3781126 C19.0333538,14.3521517 18.7753698,14.0520767 18.8013307,13.7078764 C18.8272917,13.3636761 19.1273666,13.1056921 19.471567,13.131653 C22.1537182,13.3339513 24.8725444,12.0490192 27.6406178,9.22343228 L27.5864792,8.89246028 L27.5466437,8.67837476 Z M21.7426865,7.96269536 C21.9393082,8.4947324 21.7698313,8.65692389 21.267282,8.90235488 L20.7014749,9.16723882 C20.1843009,9.39848012 19.8464652,9.45910596 19.6111434,8.73925703 C19.3316987,7.88443643 19.6507028,7.28199023 20.1017862,7.07164659 C20.5528696,6.86130294 21.410281,7.0632422 21.7426865,7.96269536 Z" id="Shape" fill="#FFFFFF" fill-rule="nonzero"></path>
    </g>
</svg>
