<svg  viewBox="0 0 115 115" version="1.1" xmlns="http://www.w3.org/2000/svg" xmlns:xlink="http://www.w3.org/1999/xlink">
    <g id="symbol-bike" stroke="none" stroke-width="1" fill="none" fill-rule="evenodd">
        <path d="M76.7396255,36.4048322 C76.7903885,37.8584948 75.8490826,38.9441029 74.1061774,39.829691 L73.9825703,39.88975 L78.297165,51.1007181 C81.0414972,49.4894114 84.2381175,48.5655085 87.650527,48.5655085 C97.8677949,48.5655085 106.150527,56.8482406 106.150527,67.0655085 C106.150527,77.2827764 97.8677949,85.5655085 87.650527,85.5655085 C77.4332591,85.5655085 69.150527,77.2827764 69.150527,67.0655085 C69.150527,61.3671809 71.7268415,56.2705838 75.7782146,52.8769732 L75.7221122,52.7544658 L73.611,47.273 L52.2744536,71.6118881 C52.088516,72.2680775 51.5760136,72.7870302 50.9236777,72.9820152 L49.824,77.6475085 L50.1,77.6479118 C50.6522847,77.6479118 51.1,78.095627 51.1,78.6479118 C51.1,79.1607476 50.7139598,79.5834189 50.2166211,79.641184 L50.1,79.6479118 L47.1,79.6479118 C46.5477153,79.6479118 46.1,79.2001965 46.1,78.6479118 C46.1,78.1350759 46.4860402,77.7124046 46.9833789,77.6546395 L47.1,77.6479118 L47.769,77.6475085 L48.963,72.58 L44.38491,71.8140626 C42.3160075,79.6268264 35.2636955,85.4123609 26.8361237,85.5625163 L26.5,85.5655085 C16.2827321,85.5655085 8,77.2827764 8,67.0655085 C8,56.8482406 16.2827321,48.5655085 26.5,48.5655085 C30.9099142,48.5655085 34.9594428,50.1085029 38.1381555,52.6840613 L41.549,49.106 L38.8286263,40.9420339 C36.3967194,40.6171293 34.5597982,39.5059126 33.3178627,37.6083839 L33.1606216,37.3586935 C33.0744914,37.2165269 33.0347872,37.0510604 33.047027,36.8852897 C33.0770561,36.4785862 33.4061739,36.1654352 33.8031734,36.1452048 L33.9037037,36.1463651 L48.5353166,37.2266966 C48.7012422,37.2389478 48.8546315,37.3195451 48.9588482,37.4492381 C49.1664177,37.707549 49.1252836,38.0852196 48.8669677,38.2927828 C46.955514,39.828759 44.6672304,40.7212966 42.0021169,40.9703955 L44.267,47.773 L71.457,41.681 L70.6628292,39.6167082 C70.3621467,38.8359071 70.7583911,37.9600501 71.5433527,37.6704028 C72.4747593,37.3267178 73.1370266,36.9828115 73.5167272,36.6697148 L73.7222452,36.4964756 L73.7337146,36.4918794 L73.7337146,36.4918794 L73.7363103,36.4576931 C73.6879898,36.1696463 73.3053286,35.9806158 72.1645642,35.9988583 L66.5523464,36.1929264 C65.7244239,36.2218381 65.0298226,35.5741118 65.0009109,34.7461894 C64.9736999,33.9669682 65.5458636,33.3058447 66.3035155,33.2066579 L66.4476479,33.1947539 L71.8505985,33.0060787 C74.6665089,32.9077449 76.6556753,34.0008141 76.7396255,36.4048322 Z M87.650527,53.5655085 C85.0012509,53.5655085 82.5302124,54.3286349 80.4452395,55.6470599 C82.799925,60.1541241 85.1380773,63.2988128 87.4184743,65.0805953 L87.431748,65.0774184 L87.580728,65.0667268 C88.6846246,65.0281779 89.6107597,65.8918129 89.6493086,66.9957095 C89.6878576,68.0996061 88.8242226,69.0257412 87.720326,69.0642901 C86.7595402,69.0978415 85.9334129,68.447967 85.7099441,67.5510835 C83.0939742,65.5539999 80.5618851,62.232069 78.0658395,57.559693 C75.6457149,59.9980938 74.150527,63.3571912 74.150527,67.0655085 C74.150527,74.5213526 80.1946829,80.5655085 87.650527,80.5655085 C95.1063711,80.5655085 101.150527,74.5213526 101.150527,67.0655085 C101.150527,59.6096644 95.1063711,53.5655085 87.650527,53.5655085 Z M26.5,53.5655085 C19.0441559,53.5655085 13,59.6096644 13,67.0655085 C13,74.5213526 19.0441559,80.5655085 26.5,80.5655085 C32.5934928,80.5655085 37.7440592,76.528361 39.4228624,70.9829029 L27.204772,68.9377968 C26.9855784,69.0203467 26.7480633,69.0655085 26.5,69.0655085 C25.3954305,69.0655085 24.5,68.170078 24.5,67.0655085 C24.5,66.022495 25.2984094,65.16596 26.3173993,65.0737324 L34.6708612,56.3181099 C32.402562,54.5909505 29.5710334,53.5655085 26.5,53.5655085 Z M42.623,52.327 L40.3085452,54.7536849 C43.2265265,58.0240987 45,62.3376951 45,67.0655085 C45,67.6710548 44.9709063,68.269806 44.9140405,68.8604403 L48.321,69.43 L42.623,52.327 Z M36.8425177,58.3884825 L29.338,66.2525085 L39.9659471,68.031842 C39.9885212,67.7126674 40,67.3904285 40,67.0655085 C40,63.7615956 38.8131408,60.7348885 36.8425177,58.3884825 Z M71.92,44.6525085 L45.221,50.634 L50.444,66.313 L50.876,64.4835085 L50.6,64.4831052 C50.0477153,64.4831052 49.6,64.03539 49.6,63.4831052 C49.6,62.9702694 49.9860402,62.5475981 50.4833789,62.4898329 L50.6,62.4831052 L53.6,62.4831052 C54.1522847,62.4831052 54.6,62.9308205 54.6,63.4831052 C54.6,63.9959411 54.2139598,64.4186124 53.7166211,64.4763775 L53.6,64.4831052 L52.931,64.4835085 L52.341,66.982 L71.92,44.6525085 Z" id="Shape" fill="#FFFFFF" fill-rule="nonzero"></path>
    </g>
</svg>
